# xmcd CD database file
#
# Track frame offsets:
#	182
#	31222
#	51400
#	75522
#	101332
#	124215
#	156237
#	177400
#	207492
#	233572
#	251835
#	287870
#
# Disc length: 4194 seconds
#
# Revision: 0
# Processed by: cddbd v1.5.2PL0 Copyright (c) Steve Scherf et al.
# Submitted via: CDex 1.70beta2
#
DISCID=a610600c
DTITLE=Vic Lewis - West Coast All Stars CD1
DYEAR=1993
DGENRE=Jazz
TTITLE0=On The Bayou
TTITLE1=Enigma
TTITLE2=A Backward Glance
TTITLE3=Blue Daniel
TTITLE4=No More
TTITLE5=Silky
TTITLE6=Summer Wishes, Winter Dreams
TTITLE7=Upper Manhattan Medical Group
TTITLE8=Lydia's Crush
TTITLE9=Funqui's Blues
TTITLE10=It's Not Going That Way
TTITLE11=Look a-Here Andy
EXTD=YEAR: 1993
EXTT0=
EXTT1=
EXTT2=
EXTT3=
EXTT4=
EXTT5=
EXTT6=
EXTT7=
EXTT8=
EXTT9=
EXTT10=
EXTT11=
PLAYORDER=
